<?xml version="1.0" encoding="UTF-8" standalone="no"?>
<svg
   xmlns:dc="http://purl.org/dc/elements/1.1/"
   xmlns:cc="http://creativecommons.org/ns#"
   xmlns:rdf="http://www.w3.org/1999/02/22-rdf-syntax-ns#"
   xmlns:svg="http://www.w3.org/2000/svg"
   xmlns="http://www.w3.org/2000/svg"
   xmlns:xlink="http://www.w3.org/1999/xlink"
   xmlns:sodipodi="http://sodipodi.sourceforge.net/DTD/sodipodi-0.dtd"
   xmlns:inkscape="http://www.inkscape.org/namespaces/inkscape"
   inkscape:version="1.0beta2 (2b71d25, 2019-12-03)"
   height="61.249535"
   width="220"
   sodipodi:docname="default.svg"
   id="svg221"
   version="1.1"
   class="iconLeft"
   viewBox="0 0 220 61.249535"
   data-v-fde0c5aa="">
  <metadata
     id="metadata225">
    <rdf:RDF>
      <cc:Work
         rdf:about="">
        <dc:format>image/svg+xml</dc:format>
        <dc:type
           rdf:resource="http://purl.org/dc/dcmitype/StillImage" />
        <dc:title></dc:title>
      </cc:Work>
    </rdf:RDF>
  </metadata>
  <sodipodi:namedview
     inkscape:current-layer="svg221"
     inkscape:window-maximized="0"
     inkscape:window-y="23"
     inkscape:window-x="0"
     inkscape:cy="31.934812"
     inkscape:cx="99.082969"
     inkscape:zoom="2.29"
     fit-margin-bottom="0"
     fit-margin-right="0"
     fit-margin-left="0"
     fit-margin-top="0"
     showgrid="false"
     id="namedview223"
     inkscape:window-height="743"
     inkscape:window-width="1118"
     inkscape:pageshadow="2"
     inkscape:pageopacity="0"
     guidetolerance="10"
     gridtolerance="10"
     objecttolerance="10"
     borderopacity="1"
     inkscape:document-rotation="0"
     bordercolor="#666666"
     pagecolor="#ffffff" />
  <!---->
  <defs
     id="defs194"
     data-v-fde0c5aa="">
    <!---->
    <linearGradient
       gradientUnits="userSpaceOnUse"
       y2="47.721951"
       x2="51.761776"
       y1="47.721951"
       x1="4.2185621"
       gradientTransform="scale(1.7873389,0.55949098)"
       id="linearGradient227"
       xlink:href="#12b2e12a-57c8-4041-a100-df5f70ae3ad4"
       inkscape:collect="always" />
    <linearGradient
       gradientUnits="userSpaceOnUse"
       y2="61.717121"
       x2="51.893955"
       y1="61.717121"
       x1="4.2021241"
       gradientTransform="scale(1.7848116,0.56028322)"
       id="linearGradient229"
       xlink:href="#12b2e12a-57c8-4041-a100-df5f70ae3ad4"
       inkscape:collect="always" />
    <linearGradient
       gradientUnits="userSpaceOnUse"
       y2="75.995613"
       x2="51.893955"
       y1="75.995613"
       x1="4.2021241"
       gradientTransform="scale(1.7848116,0.56028322)"
       id="linearGradient231"
       xlink:href="#12b2e12a-57c8-4041-a100-df5f70ae3ad4"
       inkscape:collect="always" />
    <linearGradient
       gradientUnits="userSpaceOnUse"
       y2="90.274109"
       x2="51.893955"
       y1="90.274109"
       x1="4.2021241"
       gradientTransform="scale(1.7848116,0.56028322)"
       id="linearGradient233"
       xlink:href="#12b2e12a-57c8-4041-a100-df5f70ae3ad4"
       inkscape:collect="always" />
    <linearGradient
       gradientUnits="userSpaceOnUse"
       y2="34.630135"
       x2="71.411179"
       y1="34.630135"
       x1="5.782536"
       gradientTransform="scale(1.2970088,0.77100479)"
       id="linearGradient235"
       xlink:href="#12b2e12a-57c8-4041-a100-df5f70ae3ad4"
       inkscape:collect="always" />
  </defs>
  <defs
     id="defs198"
     data-v-fde0c5aa="">
    <!---->
  </defs>
  <g
     transform="matrix(4.0032377,0,0,4.0032377,113.35375,-3.8431112)"
     fill="#000000"
     id="6b761bb9-7e66-4814-95c6-a4ccb74d8565"
     data-v-fde0c5aa="">
    <path
       inkscape:connector-curvature="0"
       id="path200"
       d="m 3.92,13.71 v 0 q -0.83,0 -1.77,-0.23 v 0 0 Q 1.2,13.26 0.67,12.99 v 0 l 0.21,-1.9 v 0 q 1.85,0.89 3.25,0.89 v 0 0 q 0.74,0 1.16,-0.28 v 0 0 q 0.42,-0.29 0.42,-0.85 v 0 0 q 0,-0.42 -0.23,-0.69 v 0 0 Q 5.25,9.88 4.82,9.7 v 0 0 Q 4.38,9.51 3.43,9.17 v 0 0 Q 2.53,8.86 1.95,8.52 v 0 0 Q 1.36,8.18 1.02,7.64 v 0 0 Q 0.67,7.1 0.67,6.31 v 0 0 q 0,-1.26 0.93,-2.03 v 0 0 Q 2.52,3.51 4.24,3.51 v 0 0 q 0.81,0 1.62,0.19 v 0 0 q 0.8,0.18 1.48,0.44 v 0 L 7.15,5.98 v 0 Q 6.29,5.6 5.57,5.41 v 0 0 Q 4.84,5.22 4.13,5.22 v 0 0 q -0.8,0 -1.22,0.27 v 0 0 Q 2.49,5.75 2.49,6.26 v 0 0 q 0,0.39 0.23,0.64 v 0 0 q 0.22,0.25 0.61,0.42 v 0 0 q 0.38,0.17 1.14,0.41 v 0 0 q 1.69,0.53 2.47,1.22 v 0 0 q 0.77,0.7 0.77,1.9 v 0 0 q 0,1.15 -0.79,2 v 0 0 q -0.8,0.86 -3,0.86 z m 7.29,-0.06 v 0 q -0.92,0 -1.4,-0.54 v 0 0 Q 9.34,12.57 9.34,11.82 v 0 -3.88 h -1 L 8.5,6.51 H 9.34 V 4.97 l 1.73,-0.18 v 1.72 h 1.54 v 1.43 h -1.54 v 3.16 0 q 0,0.56 0.07,0.78 v 0 0 q 0.06,0.22 0.26,0.28 v 0 0 q 0.21,0.06 0.74,0.06 v 0 h 0.47 l -0.15,1.43 z m 4.05,0 v 0 q -0.87,0 -1.45,-0.57 v 0 0 q -0.58,-0.56 -0.58,-1.53 v 0 0 q 0,-0.91 0.66,-1.46 v 0 0 Q 14.55,9.53 15.44,9.3 v 0 0 q 0.9,-0.23 1.72,-0.26 v 0 0 Q 17.14,8.43 16.85,8.16 v 0 0 Q 16.56,7.9 15.9,7.9 v 0 0 q -0.46,0 -0.9,0.12 v 0 0 q -0.44,0.13 -1.01,0.41 v 0 L 13.83,7.01 v 0 Q 15.11,6.4 16.38,6.4 v 0 0 q 1.23,0 1.88,0.67 v 0 0 q 0.65,0.67 0.65,2.14 v 0 1.89 0 q 0,0.53 0.05,0.77 v 0 0 q 0.05,0.23 0.17,0.29 v 0 0 q 0.12,0.06 0.4,0.06 v 0 h 0.22 l -0.15,1.43 h -0.63 v 0 q -0.57,0 -0.97,-0.22 v 0 0 q -0.39,-0.21 -0.6,-0.59 v 0 0 q -0.33,0.38 -0.92,0.59 v 0 0 q -0.58,0.22 -1.22,0.22 z m 0.73,-1.33 v 0 q 0.26,0 0.6,-0.13 v 0 0 q 0.34,-0.14 0.59,-0.37 v 0 -1.6 0 q -0.84,0.04 -1.49,0.36 v 0 0 q -0.64,0.33 -0.64,0.9 v 0 0 q 0,0.43 0.22,0.64 v 0 0 q 0.23,0.2 0.72,0.2 z m 4.06,1.19 2.32,-3.5 -2.32,-3.5 h 2.07 l 1.27,2.03 1.18,-2.03 h 2.07 l -2.32,3.5 2.32,3.5 h -2.07 l -1.27,-2.03 -1.18,2.03 z" />
  </g>
  <defs
     id="defs208"
     data-v-fde0c5aa="">
    <linearGradient
       y2="0"
       x2="1"
       y1="0"
       x1="0"
       id="12b2e12a-57c8-4041-a100-df5f70ae3ad4"
       gradientTransform="rotate(25)"
       data-v-fde0c5aa="">
      <stop
         id="stop203"
         stop-opacity="1"
         stop-color="#0D7CE9"
         offset="0%"
         data-v-fde0c5aa="" />
      <stop
         id="stop205"
         stop-opacity="1"
         stop-color="#15CFF1"
         offset="100%"
         data-v-fde0c5aa="" />
    </linearGradient>
  </defs>
  <g
     style="fill:url(#linearGradient235)"
     transform="matrix(1.2104651,0,0,1.2104651,-9.0784883,-32.319418)"
     fill="url(#12b2e12a-57c8-4041-a100-df5f70ae3ad4)"
     stroke="none"
     id="a3980e87-c71e-45d3-9b32-762db1d5b5c1"
     data-v-fde0c5aa="">
    <style
       id="style210">.st1{display:inline}</style>
    <path
       style="fill:url(#linearGradient227)"
       inkscape:connector-curvature="0"
       id="path212"
       d="M 59.6,53.3 H 9.5 C 8.6,53.3 7.8,52.7 7.6,51.8 7.4,50.9 7.7,50 8.5,49.6 L 46.4,27 c 0.3,-0.2 0.7,-0.3 1,-0.3 h 43.1 c 0.9,0 1.6,0.6 1.9,1.4 0.3,0.8 0,1.7 -0.7,2.2 L 60.8,52.9 c -0.4,0.3 -0.8,0.4 -1.2,0.4 z m -42.9,-4 H 59 L 84.5,30.6 H 47.9 Z" />
    <path
       style="fill:url(#linearGradient229)"
       inkscape:connector-curvature="0"
       id="path214"
       d="M 59.6,61.3 H 9.5 c -1.1,0 -2,-0.9 -2,-2 0,-1.1 0.9,-2 2,-2 H 59 L 89.4,35 c 0.9,-0.7 2.1,-0.5 2.8,0.4 0.7,0.9 0.5,2.1 -0.4,2.8 l -31,22.7 c -0.4,0.3 -0.8,0.4 -1.2,0.4 z" />
    <path
       style="fill:url(#linearGradient231)"
       inkscape:connector-curvature="0"
       id="path216"
       d="M 59.6,69.3 H 9.5 c -1.1,0 -2,-0.9 -2,-2 0,-1.1 0.9,-2 2,-2 H 59 L 89.4,43 c 0.9,-0.7 2.1,-0.5 2.8,0.4 0.7,0.9 0.5,2.1 -0.4,2.8 l -31,22.7 c -0.4,0.3 -0.8,0.4 -1.2,0.4 z" />
    <path
       style="fill:url(#linearGradient233)"
       inkscape:connector-curvature="0"
       id="path218"
       d="M 59.6,77.3 H 9.5 c -1.1,0 -2,-0.9 -2,-2 0,-1.1 0.9,-2 2,-2 H 59 L 89.4,51 c 0.9,-0.7 2.1,-0.5 2.8,0.4 0.7,0.9 0.5,2.1 -0.4,2.8 l -31,22.7 c -0.4,0.3 -0.8,0.4 -1.2,0.4 z" />
  </g>
  <!---->
</svg>
